<?xml version="1.0" encoding="utf-8"?>
<!-- Generator: Adobe Illustrator 24.1.2, SVG Export Plug-In . SVG Version: 6.00 Build 0)  -->
<svg version="1.1" id="Camada_1" xmlns="http://www.w3.org/2000/svg" xmlns:xlink="http://www.w3.org/1999/xlink" x="0px" y="0px"
	 viewBox="0 0 111.98 164.74" style="enable-background:new 0 0 111.98 164.74;" xml:space="preserve">
<style type="text/css">
	.st0{fill:#1E3654;}
	.st1{fill:#48BAC1;}
</style>
<g>
	<path class="st0" d="M43.26,132.07c-2.66-1.74-4.26-4.19-4.8-7.33c-0.55-3.22,0.14-6.12,2.06-8.69c1.93-2.57,4.7-4.16,8.33-4.78
		c3.55-0.61,6.65-0.02,9.32,1.77c2.67,1.78,4.28,4.29,4.83,7.51c0.54,3.14-0.16,5.98-2.09,8.51c-1.93,2.53-4.67,4.1-8.22,4.7
		C49.06,134.38,45.92,133.81,43.26,132.07z M48.39,43.03l7.48,58.32l-17.53,3l-12.31-57.5L48.39,43.03z"/>
</g>
<g>
	<path class="st1" d="M62.62,112.2c-2.19-2.03-3.28-4.54-3.28-7.52c0-3.06,1.08-5.63,3.26-7.7c2.18-2.07,5-3.11,8.44-3.11
		c3.37,0,6.15,1.03,8.34,3.09c2.19,2.07,3.28,4.63,3.29,7.7c0,2.99-1.09,5.5-3.27,7.53c-2.18,2.03-4.96,3.05-8.33,3.06
		C67.62,115.24,64.81,114.23,62.62,112.2z M81.3,30.74L79.08,85.8l-16.67,0.02l-2.37-55.05L81.3,30.74z"/>
</g>
</svg>
