<?xml version="1.0" encoding="utf-8"?>
<!-- Generator: Adobe Illustrator 24.1.2, SVG Export Plug-In . SVG Version: 6.00 Build 0)  -->
<svg version="1.1" id="Camada_1" xmlns="http://www.w3.org/2000/svg" xmlns:xlink="http://www.w3.org/1999/xlink" x="0px" y="0px"
	 viewBox="0 0 111.98 164.74" style="enable-background:new 0 0 111.98 164.74;" xml:space="preserve">
<style type="text/css">
	.st0{fill:none;stroke:#273855;stroke-width:7;stroke-miterlimit:10;}
	.st1{fill:none;stroke:#FFFFFF;stroke-width:7;stroke-miterlimit:10;}
</style>
<path class="st0" d="M40.43,98.1c-1.5,0-2.97,0.44-4.23,1.27l-5.68,3.74c-0.9,0.59-2.09-0.05-2.09-1.13V64.61
	c0-3.08,2.5-5.57,5.57-5.57h37.11c3.08,0,5.57,2.5,5.57,5.57v6.97"/>
<path class="st1" d="M89.22,114.31V76.95c0-3.08-2.5-5.57-5.57-5.57H46.53c-3.08,0-5.57,2.5-5.57,5.57v27.91
	c0,3.08,2.5,5.57,5.57,5.57h30.68c1.5,0,2.97,0.44,4.23,1.27l5.68,3.74C88.02,116.03,89.22,115.39,89.22,114.31z"/>
</svg>
