<svg width="309" height="309" viewBox="0 0 309 309" fill="none" xmlns="http://www.w3.org/2000/svg">
<rect x="1.5" y="1.5" width="306" height="306" rx="13.5" stroke="white" stroke-width="3"/>
<path d="M120.312 222.896H111.96V231.44H104.184V222.896H95.832V215.552H104.184V206.96H111.96V215.552H120.312V222.896ZM149.973 208.112H134.997V214.736C135.637 214.032 136.533 213.456 137.685 213.008C138.837 212.56 140.085 212.336 141.429 212.336C143.829 212.336 145.813 212.88 147.381 213.968C148.981 215.056 150.149 216.464 150.885 218.192C151.621 219.92 151.989 221.792 151.989 223.808C151.989 227.552 150.933 230.528 148.821 232.736C146.709 234.912 143.733 236 139.893 236C137.333 236 135.109 235.568 133.221 234.704C131.333 233.808 129.877 232.576 128.853 231.008C127.829 229.44 127.269 227.632 127.173 225.584H135.189C135.381 226.576 135.845 227.408 136.581 228.08C137.317 228.72 138.325 229.04 139.605 229.04C141.109 229.04 142.229 228.56 142.965 227.6C143.701 226.64 144.069 225.36 144.069 223.76C144.069 222.192 143.685 220.992 142.917 220.16C142.149 219.328 141.029 218.912 139.557 218.912C138.469 218.912 137.573 219.184 136.869 219.728C136.165 220.24 135.701 220.928 135.477 221.792H127.557V200.912H149.973V208.112ZM156.519 218C156.519 212.496 157.575 208.16 159.687 204.992C161.831 201.824 165.271 200.24 170.007 200.24C174.743 200.24 178.167 201.824 180.279 204.992C182.423 208.16 183.495 212.496 183.495 218C183.495 223.568 182.423 227.936 180.279 231.104C178.167 234.272 174.743 235.856 170.007 235.856C165.271 235.856 161.831 234.272 159.687 231.104C157.575 227.936 156.519 223.568 156.519 218ZM175.431 218C175.431 214.768 175.079 212.288 174.375 210.56C173.671 208.8 172.215 207.92 170.007 207.92C167.799 207.92 166.343 208.8 165.639 210.56C164.935 212.288 164.583 214.768 164.583 218C164.583 220.176 164.711 221.984 164.967 223.424C165.223 224.832 165.735 225.984 166.503 226.88C167.303 227.744 168.471 228.176 170.007 228.176C171.543 228.176 172.695 227.744 173.463 226.88C174.263 225.984 174.791 224.832 175.047 223.424C175.303 221.984 175.431 220.176 175.431 218ZM187.832 218C187.832 212.496 188.888 208.16 191 204.992C193.144 201.824 196.584 200.24 201.32 200.24C206.056 200.24 209.48 201.824 211.592 204.992C213.736 208.16 214.808 212.496 214.808 218C214.808 223.568 213.736 227.936 211.592 231.104C209.48 234.272 206.056 235.856 201.32 235.856C196.584 235.856 193.144 234.272 191 231.104C188.888 227.936 187.832 223.568 187.832 218ZM206.744 218C206.744 214.768 206.392 212.288 205.688 210.56C204.984 208.8 203.528 207.92 201.32 207.92C199.112 207.92 197.656 208.8 196.952 210.56C196.248 212.288 195.896 214.768 195.896 218C195.896 220.176 196.024 221.984 196.28 223.424C196.536 224.832 197.048 225.984 197.816 226.88C198.616 227.744 199.784 228.176 201.32 228.176C202.856 228.176 204.008 227.744 204.776 226.88C205.576 225.984 206.104 224.832 206.36 223.424C206.616 221.984 206.744 220.176 206.744 218Z" fill="#1F304A"/>
<path d="M62.427 252.265V254.963H66.778V257.471H62.427V260.397H67.348V263H59.178V249.662H67.348V252.265H62.427ZM81.9783 249.662L77.2473 263H73.1813L68.4503 249.662H71.9083L75.2143 259.732L78.5393 249.662H81.9783ZM86.5852 252.265V254.963H90.9362V257.471H86.5852V260.397H91.5062V263H83.3362V249.662H91.5062V252.265H86.5852ZM105.548 263H102.299L96.8645 254.773V263H93.6155V249.662H96.8645L102.299 257.927V249.662H105.548V263ZM117.498 249.662V252.265H113.964V263H110.715V252.265H107.181V249.662H117.498ZM125.436 263.133C124.182 263.133 123.03 262.842 121.978 262.259C120.94 261.676 120.11 260.866 119.489 259.827C118.881 258.776 118.577 257.598 118.577 256.293C118.577 254.988 118.881 253.817 119.489 252.778C120.11 251.739 120.94 250.929 121.978 250.346C123.03 249.763 124.182 249.472 125.436 249.472C126.69 249.472 127.837 249.763 128.875 250.346C129.927 250.929 130.75 251.739 131.345 252.778C131.953 253.817 132.257 254.988 132.257 256.293C132.257 257.598 131.953 258.776 131.345 259.827C130.737 260.866 129.914 261.676 128.875 262.259C127.837 262.842 126.69 263.133 125.436 263.133ZM125.436 260.169C126.5 260.169 127.349 259.814 127.982 259.105C128.628 258.396 128.951 257.458 128.951 256.293C128.951 255.115 128.628 254.178 127.982 253.481C127.349 252.772 126.5 252.417 125.436 252.417C124.36 252.417 123.498 252.765 122.852 253.462C122.219 254.159 121.902 255.102 121.902 256.293C121.902 257.471 122.219 258.415 122.852 259.124C123.498 259.821 124.36 260.169 125.436 260.169ZM138.891 263.133C137.915 263.133 137.041 262.975 136.269 262.658C135.496 262.341 134.875 261.873 134.407 261.252C133.951 260.631 133.71 259.884 133.685 259.01H137.143C137.193 259.504 137.364 259.884 137.656 260.15C137.947 260.403 138.327 260.53 138.796 260.53C139.277 260.53 139.657 260.422 139.936 260.207C140.214 259.979 140.354 259.669 140.354 259.276C140.354 258.947 140.24 258.674 140.012 258.459C139.796 258.244 139.524 258.066 139.195 257.927C138.878 257.788 138.422 257.629 137.827 257.452C136.965 257.186 136.262 256.92 135.718 256.654C135.173 256.388 134.704 255.995 134.312 255.476C133.919 254.957 133.723 254.279 133.723 253.443C133.723 252.202 134.172 251.233 135.072 250.536C135.971 249.827 137.143 249.472 138.587 249.472C140.056 249.472 141.24 249.827 142.14 250.536C143.039 251.233 143.52 252.208 143.584 253.462H140.069C140.043 253.031 139.885 252.696 139.594 252.455C139.302 252.202 138.929 252.075 138.473 252.075C138.08 252.075 137.763 252.183 137.523 252.398C137.282 252.601 137.162 252.898 137.162 253.291C137.162 253.722 137.364 254.057 137.77 254.298C138.175 254.539 138.808 254.798 139.67 255.077C140.531 255.368 141.228 255.647 141.76 255.913C142.304 256.179 142.773 256.565 143.166 257.072C143.558 257.579 143.755 258.231 143.755 259.029C143.755 259.789 143.558 260.479 143.166 261.1C142.786 261.721 142.228 262.215 141.494 262.582C140.759 262.949 139.891 263.133 138.891 263.133ZM149.23 256.312C149.23 254.995 149.515 253.823 150.085 252.797C150.655 251.758 151.446 250.954 152.46 250.384C153.486 249.801 154.645 249.51 155.937 249.51C157.52 249.51 158.875 249.928 160.003 250.764C161.13 251.6 161.884 252.74 162.264 254.184H158.692C158.426 253.627 158.046 253.202 157.552 252.911C157.07 252.62 156.519 252.474 155.899 252.474C154.898 252.474 154.087 252.822 153.467 253.519C152.846 254.216 152.536 255.147 152.536 256.312C152.536 257.477 152.846 258.408 153.467 259.105C154.087 259.802 154.898 260.15 155.899 260.15C156.519 260.15 157.07 260.004 157.552 259.713C158.046 259.422 158.426 258.997 158.692 258.44H162.264C161.884 259.884 161.13 261.024 160.003 261.86C158.875 262.683 157.52 263.095 155.937 263.095C154.645 263.095 153.486 262.81 152.46 262.24C151.446 261.657 150.655 260.853 150.085 259.827C149.515 258.801 149.23 257.629 149.23 256.312ZM170.561 263.133C169.307 263.133 168.155 262.842 167.103 262.259C166.065 261.676 165.235 260.866 164.614 259.827C164.006 258.776 163.702 257.598 163.702 256.293C163.702 254.988 164.006 253.817 164.614 252.778C165.235 251.739 166.065 250.929 167.103 250.346C168.155 249.763 169.307 249.472 170.561 249.472C171.815 249.472 172.962 249.763 174 250.346C175.052 250.929 175.875 251.739 176.47 252.778C177.078 253.817 177.382 254.988 177.382 256.293C177.382 257.598 177.078 258.776 176.47 259.827C175.862 260.866 175.039 261.676 174 262.259C172.962 262.842 171.815 263.133 170.561 263.133ZM170.561 260.169C171.625 260.169 172.474 259.814 173.107 259.105C173.753 258.396 174.076 257.458 174.076 256.293C174.076 255.115 173.753 254.178 173.107 253.481C172.474 252.772 171.625 252.417 170.561 252.417C169.485 252.417 168.623 252.765 167.977 253.462C167.344 254.159 167.027 255.102 167.027 256.293C167.027 257.471 167.344 258.415 167.977 259.124C168.623 259.821 169.485 260.169 170.561 260.169ZM187.265 256.16C188.037 256.325 188.658 256.711 189.127 257.319C189.595 257.914 189.83 258.598 189.83 259.371C189.83 260.486 189.437 261.372 188.652 262.031C187.879 262.677 186.796 263 185.403 263H179.19V249.662H185.194C186.549 249.662 187.607 249.972 188.367 250.593C189.139 251.214 189.526 252.056 189.526 253.12C189.526 253.905 189.317 254.558 188.899 255.077C188.493 255.596 187.949 255.957 187.265 256.16ZM182.439 255.058H184.567C185.099 255.058 185.504 254.944 185.783 254.716C186.074 254.475 186.22 254.127 186.22 253.671C186.22 253.215 186.074 252.867 185.783 252.626C185.504 252.385 185.099 252.265 184.567 252.265H182.439V255.058ZM184.833 260.378C185.377 260.378 185.795 260.258 186.087 260.017C186.391 259.764 186.543 259.403 186.543 258.934C186.543 258.465 186.384 258.098 186.068 257.832C185.764 257.566 185.339 257.433 184.795 257.433H182.439V260.378H184.833ZM194.963 252.265V254.963H199.314V257.471H194.963V260.397H199.884V263H191.714V249.662H199.884V252.265H194.963ZM208.795 263L206.021 257.965H205.242V263H201.993V249.662H207.446C208.498 249.662 209.391 249.846 210.125 250.213C210.873 250.58 211.43 251.087 211.797 251.733C212.165 252.366 212.348 253.076 212.348 253.861C212.348 254.748 212.095 255.539 211.588 256.236C211.094 256.933 210.36 257.427 209.384 257.718L212.462 263H208.795ZM205.242 255.666H207.256C207.852 255.666 208.295 255.52 208.586 255.229C208.89 254.938 209.042 254.526 209.042 253.994C209.042 253.487 208.89 253.088 208.586 252.797C208.295 252.506 207.852 252.36 207.256 252.36H205.242V255.666ZM223.983 249.662V252.265H220.449V263H217.2V252.265H213.666V249.662H223.983ZM231.922 263.133C230.668 263.133 229.515 262.842 228.464 262.259C227.425 261.676 226.595 260.866 225.975 259.827C225.367 258.776 225.063 257.598 225.063 256.293C225.063 254.988 225.367 253.817 225.975 252.778C226.595 251.739 227.425 250.929 228.464 250.346C229.515 249.763 230.668 249.472 231.922 249.472C233.176 249.472 234.322 249.763 235.361 250.346C236.412 250.929 237.235 251.739 237.831 252.778C238.439 253.817 238.743 254.988 238.743 256.293C238.743 257.598 238.439 258.776 237.831 259.827C237.223 260.866 236.399 261.676 235.361 262.259C234.322 262.842 233.176 263.133 231.922 263.133ZM231.922 260.169C232.986 260.169 233.834 259.814 234.468 259.105C235.114 258.396 235.437 257.458 235.437 256.293C235.437 255.115 235.114 254.178 234.468 253.481C233.834 252.772 232.986 252.417 231.922 252.417C230.845 252.417 229.984 252.765 229.338 253.462C228.704 254.159 228.388 255.102 228.388 256.293C228.388 257.471 228.704 258.415 229.338 259.124C229.984 259.821 230.845 260.169 231.922 260.169ZM245.376 263.133C244.401 263.133 243.527 262.975 242.754 262.658C241.981 262.341 241.361 261.873 240.892 261.252C240.436 260.631 240.195 259.884 240.17 259.01H243.628C243.679 259.504 243.85 259.884 244.141 260.15C244.432 260.403 244.812 260.53 245.281 260.53C245.762 260.53 246.142 260.422 246.421 260.207C246.7 259.979 246.839 259.669 246.839 259.276C246.839 258.947 246.725 258.674 246.497 258.459C246.282 258.244 246.009 258.066 245.68 257.927C245.363 257.788 244.907 257.629 244.312 257.452C243.451 257.186 242.748 256.92 242.203 256.654C241.658 256.388 241.19 255.995 240.797 255.476C240.404 254.957 240.208 254.279 240.208 253.443C240.208 252.202 240.658 251.233 241.557 250.536C242.456 249.827 243.628 249.472 245.072 249.472C246.541 249.472 247.726 249.827 248.625 250.536C249.524 251.233 250.006 252.208 250.069 253.462H246.554C246.529 253.031 246.37 252.696 246.079 252.455C245.788 252.202 245.414 252.075 244.958 252.075C244.565 252.075 244.249 252.183 244.008 252.398C243.767 252.601 243.647 252.898 243.647 253.291C243.647 253.722 243.85 254.057 244.255 254.298C244.66 254.539 245.294 254.798 246.155 255.077C247.016 255.368 247.713 255.647 248.245 255.913C248.79 256.179 249.258 256.565 249.651 257.072C250.044 257.579 250.24 258.231 250.24 259.029C250.24 259.789 250.044 260.479 249.651 261.1C249.271 261.721 248.714 262.215 247.979 262.582C247.244 262.949 246.377 263.133 245.376 263.133Z" fill="#1F304A"/>
<path d="M215.005 140.75C215.005 142.805 214.099 144.777 212.486 146.23C210.873 147.683 208.686 148.5 206.405 148.5H103.201C100.92 148.5 98.7322 147.683 97.1193 146.23C95.5065 144.777 94.6003 142.805 94.6003 140.75V94.25C94.6003 92.1946 95.5065 90.2233 97.1193 88.7699C98.7322 87.3165 100.92 86.5 103.201 86.5H113.28C120.12 86.4966 126.678 84.0464 131.513 79.6877L138.651 73.2708C140.26 71.821 142.44 71.0045 144.715 71H164.874C167.155 71.0004 169.342 71.8172 170.954 73.2708L178.075 79.6877C180.472 81.8478 183.317 83.5612 186.448 84.7301C189.58 85.8989 192.936 86.5004 196.325 86.5H206.405C208.686 86.5 210.873 87.3165 212.486 88.7699C214.099 90.2233 215.005 92.1946 215.005 94.25V140.75ZM103.201 78.75C98.6388 78.75 94.2637 80.383 91.038 83.2898C87.8122 86.1967 86 90.1391 86 94.25V140.75C86 144.861 87.8122 148.803 91.038 151.71C94.2637 154.617 98.6388 156.25 103.201 156.25H206.405C210.967 156.25 215.342 154.617 218.568 151.71C221.793 148.803 223.606 144.861 223.606 140.75V94.25C223.606 90.1391 221.793 86.1967 218.568 83.2898C215.342 80.383 210.967 78.75 206.405 78.75H196.325C191.764 78.7491 187.389 77.1155 184.164 74.2085L177.043 67.7915C173.818 64.8845 169.444 63.2509 164.882 63.25H144.723C140.162 63.2509 135.787 64.8845 132.562 67.7915L125.441 74.2085C122.216 77.1155 117.842 78.7491 113.28 78.75H103.201Z" fill="#1F304A"/>
<path d="M154.803 133C149.1 133 143.632 130.959 139.599 127.325C135.567 123.692 133.302 118.764 133.302 113.625C133.302 108.486 135.567 103.558 139.599 99.9248C143.632 96.2913 149.1 94.25 154.803 94.25C160.505 94.25 165.974 96.2913 170.006 99.9248C174.038 103.558 176.304 108.486 176.304 113.625C176.304 118.764 174.038 123.692 170.006 127.325C165.974 130.959 160.505 133 154.803 133ZM154.803 140.75C162.786 140.75 170.443 137.892 176.088 132.805C181.733 127.718 184.904 120.819 184.904 113.625C184.904 106.431 181.733 99.5317 176.088 94.4447C170.443 89.3578 162.786 86.5 154.803 86.5C146.819 86.5 139.163 89.3578 133.518 94.4447C127.873 99.5317 124.702 106.431 124.702 113.625C124.702 120.819 127.873 127.718 133.518 132.805C139.163 137.892 146.819 140.75 154.803 140.75ZM111.801 98.125C111.801 99.1527 111.348 100.138 110.542 100.865C109.735 101.592 108.641 102 107.501 102C106.36 102 105.267 101.592 104.46 100.865C103.654 100.138 103.201 99.1527 103.201 98.125C103.201 97.0973 103.654 96.1117 104.46 95.385C105.267 94.6583 106.36 94.25 107.501 94.25C108.641 94.25 109.735 94.6583 110.542 95.385C111.348 96.1117 111.801 97.0973 111.801 98.125Z" fill="#1F304A"/>
</svg>
