<svg width="309" height="309" viewBox="0 0 309 309" fill="none" xmlns="http://www.w3.org/2000/svg">
<rect x="1.5" y="1.5" width="306" height="306" rx="13.5" stroke="white" stroke-width="3"/>
<path d="M95.312 222.896H86.96V231.44H79.184V222.896H70.832V215.552H79.184V206.96H86.96V215.552H95.312V222.896ZM99.4366 208.592V200.96H112.733V236H104.189V208.592H99.4366ZM118.348 218C118.348 212.496 119.404 208.16 121.516 204.992C123.66 201.824 127.1 200.24 131.836 200.24C136.572 200.24 139.996 201.824 142.108 204.992C144.252 208.16 145.324 212.496 145.324 218C145.324 223.568 144.252 227.936 142.108 231.104C139.996 234.272 136.572 235.856 131.836 235.856C127.1 235.856 123.66 234.272 121.516 231.104C119.404 227.936 118.348 223.568 118.348 218ZM137.26 218C137.26 214.768 136.908 212.288 136.204 210.56C135.5 208.8 134.044 207.92 131.836 207.92C129.628 207.92 128.172 208.8 127.468 210.56C126.764 212.288 126.412 214.768 126.412 218C126.412 220.176 126.54 221.984 126.796 223.424C127.052 224.832 127.564 225.984 128.332 226.88C129.132 227.744 130.3 228.176 131.836 228.176C133.372 228.176 134.524 227.744 135.292 226.88C136.092 225.984 136.62 224.832 136.876 223.424C137.132 221.984 137.26 220.176 137.26 218ZM149.66 218C149.66 212.496 150.716 208.16 152.828 204.992C154.972 201.824 158.412 200.24 163.148 200.24C167.884 200.24 171.308 201.824 173.42 204.992C175.564 208.16 176.636 212.496 176.636 218C176.636 223.568 175.564 227.936 173.42 231.104C171.308 234.272 167.884 235.856 163.148 235.856C158.412 235.856 154.972 234.272 152.828 231.104C150.716 227.936 149.66 223.568 149.66 218ZM168.572 218C168.572 214.768 168.22 212.288 167.516 210.56C166.812 208.8 165.356 207.92 163.148 207.92C160.94 207.92 159.484 208.8 158.78 210.56C158.076 212.288 157.724 214.768 157.724 218C157.724 220.176 157.852 221.984 158.108 223.424C158.364 224.832 158.876 225.984 159.644 226.88C160.444 227.744 161.612 228.176 163.148 228.176C164.684 228.176 165.836 227.744 166.604 226.88C167.404 225.984 167.932 224.832 168.188 223.424C168.444 221.984 168.572 220.176 168.572 218ZM180.973 218C180.973 212.496 182.029 208.16 184.141 204.992C186.285 201.824 189.725 200.24 194.461 200.24C199.197 200.24 202.621 201.824 204.733 204.992C206.877 208.16 207.949 212.496 207.949 218C207.949 223.568 206.877 227.936 204.733 231.104C202.621 234.272 199.197 235.856 194.461 235.856C189.725 235.856 186.285 234.272 184.141 231.104C182.029 227.936 180.973 223.568 180.973 218ZM199.885 218C199.885 214.768 199.533 212.288 198.829 210.56C198.125 208.8 196.669 207.92 194.461 207.92C192.253 207.92 190.797 208.8 190.093 210.56C189.389 212.288 189.037 214.768 189.037 218C189.037 220.176 189.165 221.984 189.421 223.424C189.677 224.832 190.189 225.984 190.957 226.88C191.757 227.744 192.925 228.176 194.461 228.176C195.997 228.176 197.149 227.744 197.917 226.88C198.717 225.984 199.245 224.832 199.501 223.424C199.757 221.984 199.885 220.176 199.885 218ZM212.285 218C212.285 212.496 213.341 208.16 215.453 204.992C217.597 201.824 221.037 200.24 225.773 200.24C230.509 200.24 233.933 201.824 236.045 204.992C238.189 208.16 239.261 212.496 239.261 218C239.261 223.568 238.189 227.936 236.045 231.104C233.933 234.272 230.509 235.856 225.773 235.856C221.037 235.856 217.597 234.272 215.453 231.104C213.341 227.936 212.285 223.568 212.285 218ZM231.197 218C231.197 214.768 230.845 212.288 230.141 210.56C229.437 208.8 227.981 207.92 225.773 207.92C223.565 207.92 222.109 208.8 221.405 210.56C220.701 212.288 220.349 214.768 220.349 218C220.349 220.176 220.477 221.984 220.733 223.424C220.989 224.832 221.501 225.984 222.269 226.88C223.069 227.744 224.237 228.176 225.773 228.176C227.309 228.176 228.461 227.744 229.229 226.88C230.029 225.984 230.557 224.832 230.813 223.424C231.069 221.984 231.197 220.176 231.197 218Z" fill="#1F304A"/>
<path d="M39.427 249.662V263H36.178V249.662H39.427ZM56.8865 249.662V263H53.6375V255.001L50.6545 263H48.0325L45.0305 254.982V263H41.7815V249.662H45.6195L49.3625 258.896L53.0675 249.662H56.8865ZM69.3879 253.956C69.3879 254.729 69.2106 255.438 68.8559 256.084C68.5013 256.717 67.9566 257.23 67.2219 257.623C66.4873 258.016 65.5753 258.212 64.4859 258.212H62.4719V263H59.2229V249.662H64.4859C65.5499 249.662 66.4493 249.846 67.1839 250.213C67.9186 250.58 68.4696 251.087 68.8369 251.733C69.2043 252.379 69.3879 253.12 69.3879 253.956ZM64.2389 255.628C64.8596 255.628 65.3219 255.482 65.6259 255.191C65.9299 254.9 66.0819 254.488 66.0819 253.956C66.0819 253.424 65.9299 253.012 65.6259 252.721C65.3219 252.43 64.8596 252.284 64.2389 252.284H62.4719V255.628H64.2389ZM77.8814 263L75.1074 257.965H74.3284V263H71.0794V249.662H76.5324C77.5837 249.662 78.4767 249.846 79.2114 250.213C79.9587 250.58 80.516 251.087 80.8834 251.733C81.2507 252.366 81.4344 253.076 81.4344 253.861C81.4344 254.748 81.181 255.539 80.6744 256.236C80.1804 256.933 79.4457 257.427 78.4704 257.718L81.5484 263H77.8814ZM74.3284 255.666H76.3424C76.9377 255.666 77.381 255.52 77.6724 255.229C77.9764 254.938 78.1284 254.526 78.1284 253.994C78.1284 253.487 77.9764 253.088 77.6724 252.797C77.381 252.506 76.9377 252.36 76.3424 252.36H74.3284V255.666ZM86.7229 252.265V254.963H91.0739V257.471H86.7229V260.397H91.6439V263H83.4739V249.662H91.6439V252.265H86.7229ZM98.5792 263.133C97.6039 263.133 96.7299 262.975 95.9572 262.658C95.1845 262.341 94.5639 261.873 94.0952 261.252C93.6392 260.631 93.3985 259.884 93.3732 259.01H96.8312C96.8819 259.504 97.0529 259.884 97.3442 260.15C97.6355 260.403 98.0155 260.53 98.4842 260.53C98.9655 260.53 99.3455 260.422 99.6242 260.207C99.9029 259.979 100.042 259.669 100.042 259.276C100.042 258.947 99.9282 258.674 99.7002 258.459C99.4849 258.244 99.2125 258.066 98.8832 257.927C98.5665 257.788 98.1105 257.629 97.5152 257.452C96.6539 257.186 95.9509 256.92 95.4062 256.654C94.8615 256.388 94.3929 255.995 94.0002 255.476C93.6075 254.957 93.4112 254.279 93.4112 253.443C93.4112 252.202 93.8609 251.233 94.7602 250.536C95.6595 249.827 96.8312 249.472 98.2752 249.472C99.7445 249.472 100.929 249.827 101.828 250.536C102.728 251.233 103.209 252.208 103.272 253.462H99.7572C99.7319 253.031 99.5735 252.696 99.2822 252.455C98.9909 252.202 98.6172 252.075 98.1612 252.075C97.7685 252.075 97.4519 252.183 97.2112 252.398C96.9705 252.601 96.8502 252.898 96.8502 253.291C96.8502 253.722 97.0529 254.057 97.4582 254.298C97.8635 254.539 98.4969 254.798 99.3582 255.077C100.22 255.368 100.916 255.647 101.448 255.913C101.993 256.179 102.462 256.565 102.854 257.072C103.247 257.579 103.443 258.231 103.443 259.029C103.443 259.789 103.247 260.479 102.854 261.1C102.474 261.721 101.917 262.215 101.182 262.582C100.448 262.949 99.5799 263.133 98.5792 263.133ZM110.269 263.133C109.293 263.133 108.419 262.975 107.647 262.658C106.874 262.341 106.253 261.873 105.785 261.252C105.329 260.631 105.088 259.884 105.063 259.01H108.521C108.571 259.504 108.742 259.884 109.034 260.15C109.325 260.403 109.705 260.53 110.174 260.53C110.655 260.53 111.035 260.422 111.314 260.207C111.592 259.979 111.732 259.669 111.732 259.276C111.732 258.947 111.618 258.674 111.39 258.459C111.174 258.244 110.902 258.066 110.573 257.927C110.256 257.788 109.8 257.629 109.205 257.452C108.343 257.186 107.64 256.92 107.096 256.654C106.551 256.388 106.082 255.995 105.69 255.476C105.297 254.957 105.101 254.279 105.101 253.443C105.101 252.202 105.55 251.233 106.45 250.536C107.349 249.827 108.521 249.472 109.965 249.472C111.434 249.472 112.618 249.827 113.518 250.536C114.417 251.233 114.898 252.208 114.962 253.462H111.447C111.421 253.031 111.263 252.696 110.972 252.455C110.68 252.202 110.307 252.075 109.851 252.075C109.458 252.075 109.141 252.183 108.901 252.398C108.66 252.601 108.54 252.898 108.54 253.291C108.54 253.722 108.742 254.057 109.148 254.298C109.553 254.539 110.186 254.798 111.048 255.077C111.909 255.368 112.606 255.647 113.138 255.913C113.682 256.179 114.151 256.565 114.544 257.072C114.936 257.579 115.133 258.231 115.133 259.029C115.133 259.789 114.936 260.479 114.544 261.1C114.164 261.721 113.606 262.215 112.872 262.582C112.137 262.949 111.269 263.133 110.269 263.133ZM123.44 263.133C122.186 263.133 121.033 262.842 119.982 262.259C118.943 261.676 118.114 260.866 117.493 259.827C116.885 258.776 116.581 257.598 116.581 256.293C116.581 254.988 116.885 253.817 117.493 252.778C118.114 251.739 118.943 250.929 119.982 250.346C121.033 249.763 122.186 249.472 123.44 249.472C124.694 249.472 125.84 249.763 126.879 250.346C127.93 250.929 128.754 251.739 129.349 252.778C129.957 253.817 130.261 254.988 130.261 256.293C130.261 257.598 129.957 258.776 129.349 259.827C128.741 260.866 127.918 261.676 126.879 262.259C125.84 262.842 124.694 263.133 123.44 263.133ZM123.44 260.169C124.504 260.169 125.353 259.814 125.986 259.105C126.632 258.396 126.955 257.458 126.955 256.293C126.955 255.115 126.632 254.178 125.986 253.481C125.353 252.772 124.504 252.417 123.44 252.417C122.363 252.417 121.502 252.765 120.856 253.462C120.223 254.159 119.906 255.102 119.906 256.293C119.906 257.471 120.223 258.415 120.856 259.124C121.502 259.821 122.363 260.169 123.44 260.169ZM119.621 248.731C119.925 246.856 120.799 245.919 122.243 245.919C122.522 245.919 122.762 245.963 122.965 246.052C123.18 246.128 123.44 246.248 123.744 246.413C123.972 246.54 124.156 246.635 124.295 246.698C124.434 246.749 124.58 246.774 124.732 246.774C125.201 246.774 125.473 246.489 125.549 245.919H127.221C126.917 247.794 126.043 248.731 124.599 248.731C124.32 248.731 124.073 248.693 123.858 248.617C123.655 248.528 123.402 248.402 123.098 248.237C122.87 248.11 122.686 248.022 122.547 247.971C122.408 247.908 122.262 247.876 122.11 247.876C121.641 247.876 121.363 248.161 121.274 248.731H119.621ZM135.318 252.265V254.963H139.669V257.471H135.318V260.397H140.239V263H132.069V249.662H140.239V252.265H135.318ZM147.174 263.133C146.199 263.133 145.325 262.975 144.552 262.658C143.779 262.341 143.159 261.873 142.69 261.252C142.234 260.631 141.993 259.884 141.968 259.01H145.426C145.477 259.504 145.648 259.884 145.939 260.15C146.23 260.403 146.61 260.53 147.079 260.53C147.56 260.53 147.94 260.422 148.219 260.207C148.498 259.979 148.637 259.669 148.637 259.276C148.637 258.947 148.523 258.674 148.295 258.459C148.08 258.244 147.807 258.066 147.478 257.927C147.161 257.788 146.705 257.629 146.11 257.452C145.249 257.186 144.546 256.92 144.001 256.654C143.456 256.388 142.988 255.995 142.595 255.476C142.202 254.957 142.006 254.279 142.006 253.443C142.006 252.202 142.456 251.233 143.355 250.536C144.254 249.827 145.426 249.472 146.87 249.472C148.339 249.472 149.524 249.827 150.423 250.536C151.322 251.233 151.804 252.208 151.867 253.462H148.352C148.327 253.031 148.168 252.696 147.877 252.455C147.586 252.202 147.212 252.075 146.756 252.075C146.363 252.075 146.047 252.183 145.806 252.398C145.565 252.601 145.445 252.898 145.445 253.291C145.445 253.722 145.648 254.057 146.053 254.298C146.458 254.539 147.092 254.798 147.953 255.077C148.814 255.368 149.511 255.647 150.043 255.913C150.588 256.179 151.056 256.565 151.449 257.072C151.842 257.579 152.038 258.231 152.038 259.029C152.038 259.789 151.842 260.479 151.449 261.1C151.069 261.721 150.512 262.215 149.777 262.582C149.042 262.949 148.175 263.133 147.174 263.133ZM164.866 263L162.092 257.965H161.313V263H158.064V249.662H163.517C164.568 249.662 165.461 249.846 166.196 250.213C166.943 250.58 167.5 251.087 167.868 251.733C168.235 252.366 168.419 253.076 168.419 253.861C168.419 254.748 168.165 255.539 167.659 256.236C167.165 256.933 166.43 257.427 165.455 257.718L168.533 263H164.866ZM161.313 255.666H163.327C163.922 255.666 164.365 255.52 164.657 255.229C164.961 254.938 165.113 254.526 165.113 253.994C165.113 253.487 164.961 253.088 164.657 252.797C164.365 252.506 163.922 252.36 163.327 252.36H161.313V255.666ZM173.707 252.265V254.963H178.058V257.471H173.707V260.397H178.628V263H170.458V249.662H178.628V252.265H173.707ZM189.041 260.644H184.063L183.265 263H179.864L184.69 249.662H188.452L193.278 263H189.839L189.041 260.644ZM188.205 258.136L186.552 253.253L184.918 258.136H188.205ZM197.995 260.492H202.251V263H194.746V249.662H197.995V260.492ZM207.05 249.662V263H203.801V249.662H207.05ZM212.863 260.34H218.601V263H209.177V260.53L214.877 252.322H209.177V249.662H218.601V252.132L212.863 260.34ZM229.026 260.644H224.048L223.25 263H219.849L224.675 249.662H228.437L233.263 263H229.824L229.026 260.644ZM228.19 258.136L226.537 253.253L224.903 258.136H228.19ZM239.729 249.662C241.135 249.662 242.363 249.941 243.415 250.498C244.466 251.055 245.277 251.841 245.847 252.854C246.429 253.855 246.721 255.014 246.721 256.331C246.721 257.636 246.429 258.795 245.847 259.808C245.277 260.821 244.46 261.607 243.396 262.164C242.344 262.721 241.122 263 239.729 263H234.732V249.662H239.729ZM239.52 260.188C240.748 260.188 241.705 259.852 242.389 259.181C243.073 258.51 243.415 257.56 243.415 256.331C243.415 255.102 243.073 254.146 242.389 253.462C241.705 252.778 240.748 252.436 239.52 252.436H237.981V260.188H239.52ZM256.839 260.644H251.861L251.063 263H247.662L252.488 249.662H256.25L261.076 263H257.637L256.839 260.644ZM256.003 258.136L254.35 253.253L252.716 258.136H256.003ZM267.371 263.133C266.396 263.133 265.522 262.975 264.749 262.658C263.977 262.341 263.356 261.873 262.887 261.252C262.431 260.631 262.191 259.884 262.165 259.01H265.623C265.674 259.504 265.845 259.884 266.136 260.15C266.428 260.403 266.808 260.53 267.276 260.53C267.758 260.53 268.138 260.422 268.416 260.207C268.695 259.979 268.834 259.669 268.834 259.276C268.834 258.947 268.72 258.674 268.492 258.459C268.277 258.244 268.005 258.066 267.675 257.927C267.359 257.788 266.903 257.629 266.307 257.452C265.446 257.186 264.743 256.92 264.198 256.654C263.654 256.388 263.185 255.995 262.792 255.476C262.4 254.957 262.203 254.279 262.203 253.443C262.203 252.202 262.653 251.233 263.552 250.536C264.452 249.827 265.623 249.472 267.067 249.472C268.537 249.472 269.721 249.827 270.62 250.536C271.52 251.233 272.001 252.208 272.064 253.462H268.549C268.524 253.031 268.366 252.696 268.074 252.455C267.783 252.202 267.409 252.075 266.953 252.075C266.561 252.075 266.244 252.183 266.003 252.398C265.763 252.601 265.642 252.898 265.642 253.291C265.642 253.722 265.845 254.057 266.25 254.298C266.656 254.539 267.289 254.798 268.15 255.077C269.012 255.368 269.708 255.647 270.24 255.913C270.785 256.179 271.254 256.565 271.646 257.072C272.039 257.579 272.235 258.231 272.235 259.029C272.235 259.789 272.039 260.479 271.646 261.1C271.266 261.721 270.709 262.215 269.974 262.582C269.24 262.949 268.372 263.133 267.371 263.133Z" fill="#1F304A"/>
<path d="M196 81.025V53H114V81.025C108.877 81.2876 104.051 83.5059 100.515 87.2225C96.9803 90.9391 95.0061 95.8706 95 101V149H112V141H103V101C103.004 97.8185 104.269 94.7683 106.519 92.5187C108.768 90.269 111.818 89.0036 115 89H195C198.182 89.0036 201.232 90.269 203.481 92.5187C205.731 94.7683 206.996 97.8185 207 101V141H196V149H215V101C214.994 95.8706 213.02 90.9391 209.485 87.2225C205.949 83.5059 201.123 81.2876 196 81.025ZM188 81H122V61H188V81Z" fill="#1F304A"/>
<path d="M190 99H198V107H190V99Z" fill="#1F304A"/>
<path d="M120 115H110V123H120V173H188V123H198V115H120ZM180 165H128V123H180V165Z" fill="#1F304A"/>
</svg>
