<svg width="309" height="309" viewBox="0 0 309 309" fill="none" xmlns="http://www.w3.org/2000/svg">
<rect x="1.5" y="1.5" width="306" height="306" rx="13.5" stroke="white" stroke-width="3"/>
<path d="M105.312 222.896H96.96V231.44H89.184V222.896H80.832V215.552H89.184V206.96H96.96V215.552H105.312V222.896ZM110.493 229.76V223.136L125.661 201.44H134.829V222.656H138.765V229.76H134.829V236H126.621V229.76H110.493ZM127.197 210.464L119.133 222.656H127.197V210.464ZM142.785 218C142.785 212.496 143.841 208.16 145.953 204.992C148.097 201.824 151.537 200.24 156.273 200.24C161.009 200.24 164.433 201.824 166.545 204.992C168.689 208.16 169.761 212.496 169.761 218C169.761 223.568 168.689 227.936 166.545 231.104C164.433 234.272 161.009 235.856 156.273 235.856C151.537 235.856 148.097 234.272 145.953 231.104C143.841 227.936 142.785 223.568 142.785 218ZM161.697 218C161.697 214.768 161.345 212.288 160.641 210.56C159.937 208.8 158.481 207.92 156.273 207.92C154.065 207.92 152.609 208.8 151.905 210.56C151.201 212.288 150.849 214.768 150.849 218C150.849 220.176 150.977 221.984 151.233 223.424C151.489 224.832 152.001 225.984 152.769 226.88C153.569 227.744 154.737 228.176 156.273 228.176C157.809 228.176 158.961 227.744 159.729 226.88C160.529 225.984 161.057 224.832 161.313 223.424C161.569 221.984 161.697 220.176 161.697 218ZM174.098 218C174.098 212.496 175.154 208.16 177.266 204.992C179.41 201.824 182.85 200.24 187.586 200.24C192.322 200.24 195.746 201.824 197.858 204.992C200.002 208.16 201.074 212.496 201.074 218C201.074 223.568 200.002 227.936 197.858 231.104C195.746 234.272 192.322 235.856 187.586 235.856C182.85 235.856 179.41 234.272 177.266 231.104C175.154 227.936 174.098 223.568 174.098 218ZM193.01 218C193.01 214.768 192.658 212.288 191.954 210.56C191.25 208.8 189.794 207.92 187.586 207.92C185.378 207.92 183.922 208.8 183.218 210.56C182.514 212.288 182.162 214.768 182.162 218C182.162 220.176 182.29 221.984 182.546 223.424C182.802 224.832 183.314 225.984 184.082 226.88C184.882 227.744 186.05 228.176 187.586 228.176C189.122 228.176 190.274 227.744 191.042 226.88C191.842 225.984 192.37 224.832 192.626 223.424C192.882 221.984 193.01 220.176 193.01 218ZM205.41 218C205.41 212.496 206.466 208.16 208.578 204.992C210.722 201.824 214.162 200.24 218.898 200.24C223.634 200.24 227.058 201.824 229.17 204.992C231.314 208.16 232.386 212.496 232.386 218C232.386 223.568 231.314 227.936 229.17 231.104C227.058 234.272 223.634 235.856 218.898 235.856C214.162 235.856 210.722 234.272 208.578 231.104C206.466 227.936 205.41 223.568 205.41 218ZM224.322 218C224.322 214.768 223.97 212.288 223.266 210.56C222.562 208.8 221.106 207.92 218.898 207.92C216.69 207.92 215.234 208.8 214.53 210.56C213.826 212.288 213.474 214.768 213.474 218C213.474 220.176 213.602 221.984 213.858 223.424C214.114 224.832 214.626 225.984 215.394 226.88C216.194 227.744 217.362 228.176 218.898 228.176C220.434 228.176 221.586 227.744 222.354 226.88C223.154 225.984 223.682 224.832 223.938 223.424C224.194 221.984 224.322 220.176 224.322 218Z" fill="#1F304A"/>
<path d="M41.175 249.662C42.581 249.662 43.8097 249.941 44.861 250.498C45.9123 251.055 46.723 251.841 47.293 252.854C47.8757 253.855 48.167 255.014 48.167 256.331C48.167 257.636 47.8757 258.795 47.293 259.808C46.723 260.821 45.906 261.607 44.842 262.164C43.7907 262.721 42.5683 263 41.175 263H36.178V249.662H41.175ZM40.966 260.188C42.1947 260.188 43.151 259.852 43.835 259.181C44.519 258.51 44.861 257.56 44.861 256.331C44.861 255.102 44.519 254.146 43.835 253.462C43.151 252.778 42.1947 252.436 40.966 252.436H39.427V260.188H40.966ZM53.2317 252.265V254.963H57.5827V257.471H53.2317V260.397H58.1527V263H49.9827V249.662H58.1527V252.265H53.2317ZM75.367 249.662V263H72.118V255.001L69.135 263H66.513L63.511 254.982V263H60.262V249.662H64.1L67.843 258.896L71.548 249.662H75.367ZM86.0064 260.644H81.0284L80.2304 263H76.8294L81.6554 249.662H85.4174L90.2434 263H86.8044L86.0064 260.644ZM85.1704 258.136L83.5174 253.253L81.8834 258.136H85.1704ZM103.644 263H100.395L94.9612 254.773V263H91.7122V249.662H94.9612L100.395 257.927V249.662H103.644V263ZM110.996 249.662C112.402 249.662 113.631 249.941 114.682 250.498C115.734 251.055 116.544 251.841 117.114 252.854C117.697 253.855 117.988 255.014 117.988 256.331C117.988 257.636 117.697 258.795 117.114 259.808C116.544 260.821 115.727 261.607 114.663 262.164C113.612 262.721 112.39 263 110.996 263H105.999V249.662H110.996ZM110.787 260.188C112.016 260.188 112.972 259.852 113.656 259.181C114.34 258.51 114.682 257.56 114.682 256.331C114.682 255.102 114.34 254.146 113.656 253.462C112.972 252.778 112.016 252.436 110.787 252.436H109.248V260.188H110.787ZM128.107 260.644H123.129L122.331 263H118.93L123.756 249.662H127.518L132.344 263H128.905L128.107 260.644ZM127.271 258.136L125.618 253.253L123.984 258.136H127.271ZM138.639 263.133C137.663 263.133 136.789 262.975 136.017 262.658C135.244 262.341 134.623 261.873 134.155 261.252C133.699 260.631 133.458 259.884 133.433 259.01H136.891C136.941 259.504 137.112 259.884 137.404 260.15C137.695 260.403 138.075 260.53 138.544 260.53C139.025 260.53 139.405 260.422 139.684 260.207C139.962 259.979 140.102 259.669 140.102 259.276C140.102 258.947 139.988 258.674 139.76 258.459C139.544 258.244 139.272 258.066 138.943 257.927C138.626 257.788 138.17 257.629 137.575 257.452C136.713 257.186 136.01 256.92 135.466 256.654C134.921 256.388 134.452 255.995 134.06 255.476C133.667 254.957 133.471 254.279 133.471 253.443C133.471 252.202 133.92 251.233 134.82 250.536C135.719 249.827 136.891 249.472 138.335 249.472C139.804 249.472 140.988 249.827 141.888 250.536C142.787 251.233 143.268 252.208 143.332 253.462H139.817C139.791 253.031 139.633 252.696 139.342 252.455C139.05 252.202 138.677 252.075 138.221 252.075C137.828 252.075 137.511 252.183 137.271 252.398C137.03 252.601 136.91 252.898 136.91 253.291C136.91 253.722 137.112 254.057 137.518 254.298C137.923 254.539 138.556 254.798 139.418 255.077C140.279 255.368 140.976 255.647 141.508 255.913C142.052 256.179 142.521 256.565 142.914 257.072C143.306 257.579 143.503 258.231 143.503 259.029C143.503 259.789 143.306 260.479 142.914 261.1C142.534 261.721 141.976 262.215 141.242 262.582C140.507 262.949 139.639 263.133 138.639 263.133ZM148.978 256.312C148.978 254.995 149.263 253.823 149.833 252.797C150.403 251.758 151.194 250.954 152.208 250.384C153.234 249.801 154.393 249.51 155.685 249.51C157.268 249.51 158.623 249.928 159.751 250.764C160.878 251.6 161.632 252.74 162.012 254.184H158.44C158.174 253.627 157.794 253.202 157.3 252.911C156.818 252.62 156.267 252.474 155.647 252.474C154.646 252.474 153.835 252.822 153.215 253.519C152.594 254.216 152.284 255.147 152.284 256.312C152.284 257.477 152.594 258.408 153.215 259.105C153.835 259.802 154.646 260.15 155.647 260.15C156.267 260.15 156.818 260.004 157.3 259.713C157.794 259.422 158.174 258.997 158.44 258.44H162.012C161.632 259.884 160.878 261.024 159.751 261.86C158.623 262.683 157.268 263.095 155.685 263.095C154.393 263.095 153.234 262.81 152.208 262.24C151.194 261.657 150.403 260.853 149.833 259.827C149.263 258.801 148.978 257.629 148.978 256.312ZM170.309 263.133C169.055 263.133 167.903 262.842 166.851 262.259C165.813 261.676 164.983 260.866 164.362 259.827C163.754 258.776 163.45 257.598 163.45 256.293C163.45 254.988 163.754 253.817 164.362 252.778C164.983 251.739 165.813 250.929 166.851 250.346C167.903 249.763 169.055 249.472 170.309 249.472C171.563 249.472 172.71 249.763 173.748 250.346C174.8 250.929 175.623 251.739 176.218 252.778C176.826 253.817 177.13 254.988 177.13 256.293C177.13 257.598 176.826 258.776 176.218 259.827C175.61 260.866 174.787 261.676 173.748 262.259C172.71 262.842 171.563 263.133 170.309 263.133ZM170.309 260.169C171.373 260.169 172.222 259.814 172.855 259.105C173.501 258.396 173.824 257.458 173.824 256.293C173.824 255.115 173.501 254.178 172.855 253.481C172.222 252.772 171.373 252.417 170.309 252.417C169.233 252.417 168.371 252.765 167.725 253.462C167.092 254.159 166.775 255.102 166.775 256.293C166.775 257.471 167.092 258.415 167.725 259.124C168.371 259.821 169.233 260.169 170.309 260.169ZM190.87 263H187.621L182.187 254.773V263H178.938V249.662H182.187L187.621 257.927V249.662H190.87V263ZM192.674 256.312C192.674 254.995 192.959 253.823 193.529 252.797C194.099 251.758 194.891 250.954 195.904 250.384C196.93 249.801 198.089 249.51 199.381 249.51C200.964 249.51 202.32 249.928 203.447 250.764C204.574 251.6 205.328 252.74 205.708 254.184H202.136C201.87 253.627 201.49 253.202 200.996 252.911C200.515 252.62 199.964 252.474 199.343 252.474C198.342 252.474 197.532 252.822 196.911 253.519C196.29 254.216 195.98 255.147 195.98 256.312C195.98 257.477 196.29 258.408 196.911 259.105C197.532 259.802 198.342 260.15 199.343 260.15C199.964 260.15 200.515 260.004 200.996 259.713C201.49 259.422 201.87 258.997 202.136 258.44H205.708C205.328 259.884 204.574 261.024 203.447 261.86C202.32 262.683 200.964 263.095 199.381 263.095C198.089 263.095 196.93 262.81 195.904 262.24C194.891 261.657 194.099 260.853 193.529 259.827C192.959 258.801 192.674 257.629 192.674 256.312ZM210.947 260.492H215.203V263H207.698V249.662H210.947V260.492ZM219.944 249.662V257.642C219.944 258.44 220.141 259.054 220.533 259.485C220.926 259.916 221.502 260.131 222.262 260.131C223.022 260.131 223.605 259.916 224.01 259.485C224.416 259.054 224.618 258.44 224.618 257.642V249.662H227.867V257.623C227.867 258.814 227.614 259.821 227.107 260.644C226.601 261.467 225.917 262.088 225.055 262.506C224.207 262.924 223.257 263.133 222.205 263.133C221.154 263.133 220.21 262.93 219.374 262.525C218.551 262.107 217.899 261.486 217.417 260.663C216.936 259.827 216.695 258.814 216.695 257.623V249.662H219.944ZM233.398 249.662V263H230.149V249.662H233.398ZM233.987 246.983L229.408 248.902V246.66L233.987 244.456V246.983ZM240.749 249.662C242.155 249.662 243.384 249.941 244.435 250.498C245.487 251.055 246.297 251.841 246.867 252.854C247.45 253.855 247.741 255.014 247.741 256.331C247.741 257.636 247.45 258.795 246.867 259.808C246.297 260.821 245.48 261.607 244.416 262.164C243.365 262.721 242.143 263 240.749 263H235.752V249.662H240.749ZM240.54 260.188C241.769 260.188 242.725 259.852 243.409 259.181C244.093 258.51 244.435 257.56 244.435 256.331C244.435 255.102 244.093 254.146 243.409 253.462C242.725 252.778 241.769 252.436 240.54 252.436H239.001V260.188H240.54ZM257.86 260.644H252.882L252.084 263H248.683L253.509 249.662H257.271L262.097 263H258.658L257.86 260.644ZM257.024 258.136L255.371 253.253L253.737 258.136H257.024ZM268.392 263.133C267.416 263.133 266.542 262.975 265.77 262.658C264.997 262.341 264.376 261.873 263.908 261.252C263.452 260.631 263.211 259.884 263.186 259.01H266.644C266.694 259.504 266.865 259.884 267.157 260.15C267.448 260.403 267.828 260.53 268.297 260.53C268.778 260.53 269.158 260.422 269.437 260.207C269.715 259.979 269.855 259.669 269.855 259.276C269.855 258.947 269.741 258.674 269.513 258.459C269.297 258.244 269.025 258.066 268.696 257.927C268.379 257.788 267.923 257.629 267.328 257.452C266.466 257.186 265.763 256.92 265.219 256.654C264.674 256.388 264.205 255.995 263.813 255.476C263.42 254.957 263.224 254.279 263.224 253.443C263.224 252.202 263.673 251.233 264.573 250.536C265.472 249.827 266.644 249.472 268.088 249.472C269.557 249.472 270.741 249.827 271.641 250.536C272.54 251.233 273.021 252.208 273.085 253.462H269.57C269.544 253.031 269.386 252.696 269.095 252.455C268.803 252.202 268.43 252.075 267.974 252.075C267.581 252.075 267.264 252.183 267.024 252.398C266.783 252.601 266.663 252.898 266.663 253.291C266.663 253.722 266.865 254.057 267.271 254.298C267.676 254.539 268.309 254.798 269.171 255.077C270.032 255.368 270.729 255.647 271.261 255.913C271.805 256.179 272.274 256.565 272.667 257.072C273.059 257.579 273.256 258.231 273.256 259.029C273.256 259.789 273.059 260.479 272.667 261.1C272.287 261.721 271.729 262.215 270.995 262.582C270.26 262.949 269.392 263.133 268.392 263.133Z" fill="#1F304A"/>
<path fill-rule="evenodd" clip-rule="evenodd" d="M109.241 103.934C107.425 104.348 105.893 105.424 104.981 106.927C104.069 108.429 103.851 110.235 104.377 111.947L110.32 131.308C110.846 133.02 112.071 134.497 113.726 135.415C115.381 136.333 117.331 136.617 119.146 136.203L132.836 133.086L122.931 100.816L109.241 103.934ZM134.817 139.539L127.972 141.098L135.897 166.914C136.16 167.769 136.772 168.508 137.6 168.967C138.427 169.426 139.402 169.568 140.31 169.361C141.218 169.154 141.984 168.616 142.44 167.865C142.896 167.113 143.005 166.211 142.742 165.355L134.817 139.539ZM121.127 142.657C117.497 143.484 113.597 142.917 110.287 141.081C106.976 139.245 104.526 136.291 103.475 132.867L97.5318 113.506C96.481 110.082 96.9155 106.471 98.7398 103.465C100.564 100.46 103.629 98.3071 107.26 97.4802L124.372 93.583C125.28 93.3763 126.254 93.518 127.082 93.977C127.91 94.436 128.522 95.1746 128.785 96.0305L149.587 163.796C150.375 166.363 150.049 169.072 148.681 171.326C147.313 173.58 145.014 175.195 142.291 175.815C139.568 176.435 136.643 176.01 134.16 174.633C131.678 173.256 129.84 171.04 129.052 168.473L121.127 142.657Z" fill="#1F304A"/>
<path fill-rule="evenodd" clip-rule="evenodd" d="M170.858 51.8543C171.486 52.0104 172.064 52.3186 172.532 52.7465C173.001 53.1743 173.342 53.7062 173.521 54.2863L183.493 86.643C187.148 85.8138 191.073 86.3823 194.406 88.2232C197.738 90.0641 200.205 93.0268 201.262 96.4594L202.26 99.695C203.318 103.128 202.88 106.749 201.044 109.763C199.207 112.776 196.122 114.935 192.467 115.764L202.439 148.121C202.618 148.7 202.628 149.307 202.467 149.878C202.306 150.448 201.982 150.962 201.526 151.363C201.071 151.765 200.502 152.041 199.879 152.163C199.256 152.284 198.602 152.246 197.985 152.053L153.106 138C152.527 137.819 152 137.507 151.574 137.092C151.148 136.678 150.837 136.176 150.67 135.631L135.712 87.0963C135.544 86.5518 135.525 85.983 135.657 85.4423C135.788 84.9017 136.067 84.4068 136.466 84.0035L167.384 52.7567C167.809 52.3273 168.355 52.017 168.967 51.8582C169.578 51.6995 170.231 51.6981 170.858 51.8543ZM190.473 109.293C192.3 108.878 193.843 107.799 194.761 106.292C195.679 104.785 195.898 102.974 195.369 101.258L194.372 98.0225C193.843 96.3062 192.61 94.8249 190.943 93.9044C189.277 92.9839 187.314 92.6997 185.487 93.1143L190.473 109.293ZM143.15 87.3095L157.012 132.288L193.73 143.785L168.447 61.7448L143.15 87.3095Z" fill="#1F304A"/>
<path fill-rule="evenodd" clip-rule="evenodd" d="M218.054 76.3511C218.412 76.647 218.707 77.0032 218.923 77.3992C219.138 77.7953 219.269 78.2235 219.309 78.6594C219.349 79.0953 219.296 79.5304 219.154 79.9398C219.011 80.3491 218.783 80.7248 218.481 81.0453L210.182 89.8422C209.88 90.1627 209.51 90.4218 209.094 90.6047C208.677 90.7876 208.223 90.8907 207.756 90.9081C207.289 90.9255 206.818 90.8568 206.372 90.7061C205.925 90.5554 205.511 90.3255 205.153 90.0296C204.795 89.7336 204.5 89.3775 204.284 88.9814C204.069 88.5854 203.938 88.1572 203.898 87.7213C203.858 87.2854 203.911 86.8503 204.053 86.441C204.195 86.0316 204.424 85.6559 204.726 85.3354L213.025 76.5385C213.327 76.2179 213.697 75.9588 214.113 75.7758C214.53 75.5929 214.984 75.4898 215.451 75.4724C215.918 75.455 216.388 75.5237 216.835 75.6745C217.282 75.8252 217.696 76.0552 218.054 76.3511ZM207.995 101.283C207.732 100.427 207.84 99.5236 208.297 98.7719C208.754 98.0201 209.521 97.4816 210.43 97.2748L224.141 94.1553C225.05 93.9485 226.026 94.0903 226.855 94.5495C227.684 95.0087 228.297 95.7478 228.56 96.6041C228.823 97.4604 228.715 98.3638 228.258 99.1155C227.801 99.8673 227.034 100.406 226.125 100.613L212.414 103.732C211.505 103.939 210.529 103.797 209.7 103.338C208.871 102.879 208.258 102.14 207.995 101.283ZM211.988 112.275C212.129 111.865 212.357 111.489 212.659 111.168C212.961 110.847 213.33 110.588 213.746 110.404C214.162 110.221 214.616 110.117 215.083 110.099C215.55 110.081 216.021 110.149 216.467 110.299L228.734 114.417C229.181 114.567 229.596 114.796 229.954 115.092C230.313 115.387 230.609 115.743 230.825 116.138C231.041 116.534 231.173 116.962 231.213 117.398C231.253 117.834 231.201 118.269 231.06 118.679C230.918 119.088 230.69 119.464 230.389 119.785C230.087 120.106 229.718 120.366 229.302 120.55C228.886 120.733 228.431 120.837 227.964 120.855C227.498 120.873 227.027 120.805 226.58 120.655L214.314 116.537C213.867 116.387 213.452 116.158 213.093 115.862C212.735 115.567 212.439 115.211 212.223 114.815C212.007 114.42 211.875 113.992 211.835 113.556C211.795 113.12 211.847 112.685 211.988 112.275Z" fill="#1F304A"/>
</svg>
