<svg xmlns="http://www.w3.org/2000/svg" viewBox="0 0 1445.36 241.67"><defs><style>.a,.c,.d,.j{fill:none;}.a,.c,.d{stroke:#ae9153;}.a,.f,.g{stroke-miterlimit:10;}.a{stroke-width:10px;}.b{fill:#ae9153;}.c,.d,.e,.h,.i,.j{stroke-linecap:round;stroke-linejoin:round;}.c,.d{stroke-width:15px;}.d{stroke-dasharray:25.04 25.04;}.e,.f,.g,.i,.k{fill:#21324e;}.e,.f,.g,.h,.i,.j{stroke:#21324e;}.e{stroke-width:4px;}.g{stroke-width:7px;}.h{fill:aqua;}.h,.i,.j{stroke-width:5px;}.l{fill:#fff;}</style></defs><circle class="a" cx="455.98" cy="89.98" r="83.98"/><path class="b" d="M485.64,111.44v13.18H445.25V114.18l18.22-16.85a15.15,15.15,0,0,0,3.17-3.82,7,7,0,0,0,.79-3.09,3.59,3.59,0,0,0-1.26-2.92,5.6,5.6,0,0,0-3.64-1,8.21,8.21,0,0,0-4.32,1.22,8.06,8.06,0,0,0-3.09,3.46L442.3,84.73a21.07,21.07,0,0,1,8.42-8.53,30.06,30.06,0,0,1,24-1.19,16.59,16.59,0,0,1,7.2,5.54,13.79,13.79,0,0,1,2.59,8.28,17.78,17.78,0,0,1-1.76,7.82q-1.77,3.63-6.88,8.24l-7.2,6.55Z" transform="translate(-9.14 -10.19)"/><line class="a" x1="177.23" y1="89.23" x2="368.23" y2="89.23"/><line class="a" x1="544.23" y1="90.23" x2="735.23" y2="90.23"/><polyline class="c" points="1301.18 91.27 1289.68 91.27 1301.18 91.27"/><line class="d" x1="1326.22" y1="91.27" x2="1413.84" y2="91.27"/><polyline class="c" points="1426.36 91.27 1437.86 91.27 1426.36 91.27"/><line class="d" x1="1401.32" y1="91.27" x2="1313.7" y2="91.27"/><line class="a" x1="911.77" y1="90.89" x2="1102.77" y2="90.89"/><circle class="a" cx="823.98" cy="89.98" r="83.98"/><path class="b" d="M850.37,99.38a13.81,13.81,0,0,1,3.13,9.11A15.59,15.59,0,0,1,851,117a17.7,17.7,0,0,1-7.67,6.37,30.18,30.18,0,0,1-12.89,2.45,50.34,50.34,0,0,1-10.62-1.15,33.05,33.05,0,0,1-9.25-3.39l5.76-12.52a26.37,26.37,0,0,0,6.66,2.73,26.7,26.7,0,0,0,6.87.94,9.78,9.78,0,0,0,4.76-1,3.16,3.16,0,0,0,1.8-2.88c0-2.3-2-3.46-6-3.46h-6.7V94.59L831.18,87h-18V74.22h37.58V84.66l-9.36,9.5A16.31,16.31,0,0,1,850.37,99.38Z" transform="translate(-9.14 -10.19)"/><ellipse class="a" cx="88.98" cy="88.4" rx="83.98" ry="83.4"/><path class="b" d="M109.07,73.22v50.4h-17V86H83.44V73.22Z" transform="translate(-9.14 -10.19)"/><path class="b" d="M50.79,219.05v6.3h8.46v4H50.79V236h9.54v4.11H45.75V214.94H60.33v4.11Z" transform="translate(-9.14 -10.19)"/><path class="b" d="M86.39,240.11h-5L69.94,222.86v17.25h-5V214.94h5l11.41,17.28V214.94h5Z" transform="translate(-9.14 -10.19)"/><path class="b" d="M113.93,215l-9.21,25.13H98.6L89.38,215h5.4l6.91,20,6.88-20Z" transform="translate(-9.14 -10.19)"/><path class="b" d="M122,215v25.13h-5V215Z" transform="translate(-9.14 -10.19)"/><path class="b" d="M132.15,238.7a12.28,12.28,0,0,1-4.68-4.59,13.53,13.53,0,0,1,0-13.24,12.28,12.28,0,0,1,4.68-4.59,13.52,13.52,0,0,1,13,0,12.24,12.24,0,0,1,4.64,4.59,13.67,13.67,0,0,1,0,13.24,12.16,12.16,0,0,1-4.66,4.59,13.48,13.48,0,0,1-13,0Zm10.47-3.87a6.91,6.91,0,0,0,2.7-2.93,9.61,9.61,0,0,0,1-4.43,9.49,9.49,0,0,0-1-4.41,6.89,6.89,0,0,0-2.7-2.9,7.78,7.78,0,0,0-4-1,7.94,7.94,0,0,0-4,1,6.91,6.91,0,0,0-2.71,2.9,9.49,9.49,0,0,0-1,4.41,9.61,9.61,0,0,0,1,4.43,6.93,6.93,0,0,0,2.71,2.93,7.76,7.76,0,0,0,4,1A7.6,7.6,0,0,0,142.62,234.83Z" transform="translate(-9.14 -10.19)"/><path class="b" d="M357.1,215.76a11,11,0,0,1,4.64,4.41,13,13,0,0,1,1.64,6.64,12.83,12.83,0,0,1-1.64,6.6,11.09,11.09,0,0,1-4.64,4.38,15,15,0,0,1-7,1.55h-8.78V214.21h8.78A14.92,14.92,0,0,1,357.1,215.76Zm-1,17.13a8.23,8.23,0,0,0,2.16-6.08,8.42,8.42,0,0,0-2.16-6.14,8.14,8.14,0,0,0-6.12-2.21h-3.56v16.59H350A8.28,8.28,0,0,0,356.07,232.89Z" transform="translate(-9.14 -10.19)"/><path class="b" d="M372.2,214.21v25.13h-5V214.21Z" transform="translate(-9.14 -10.19)"/><path class="b" d="M381.11,238.69a7.88,7.88,0,0,1-3.33-2.59,6.92,6.92,0,0,1-1.26-4h5.4a3.49,3.49,0,0,0,1.1,2.45,3.9,3.9,0,0,0,2.72.9,4.15,4.15,0,0,0,2.77-.85,2.75,2.75,0,0,0,1-2.21,2.56,2.56,0,0,0-.69-1.84,4.61,4.61,0,0,0-1.71-1.13,27.68,27.68,0,0,0-2.82-.92,30.15,30.15,0,0,1-4-1.42,7,7,0,0,1-2.63-2.13,6,6,0,0,1-1.1-3.79,6.82,6.82,0,0,1,1.12-3.89,7.14,7.14,0,0,1,3.13-2.54,11.38,11.38,0,0,1,4.61-.88,10,10,0,0,1,6.32,1.89,7,7,0,0,1,2.68,5.27h-5.54a2.9,2.9,0,0,0-1.1-2.14,4.17,4.17,0,0,0-2.72-.85,3.54,3.54,0,0,0-2.36.76,2.73,2.73,0,0,0-.88,2.2,2.24,2.24,0,0,0,.67,1.67,5.14,5.14,0,0,0,1.65,1.08,28.92,28.92,0,0,0,2.79,1,30.81,30.81,0,0,1,4,1.44,7.15,7.15,0,0,1,2.66,2.16,6,6,0,0,1,1.12,3.78,7.08,7.08,0,0,1-1.05,3.75,7.28,7.28,0,0,1-3.06,2.75,10.34,10.34,0,0,1-4.78,1A12,12,0,0,1,381.11,238.69Z" transform="translate(-9.14 -10.19)"/><path class="b" d="M416.19,214.21v4.07H409.5v21.06h-5V218.28h-6.7v-4.07Z" transform="translate(-9.14 -10.19)"/><path class="b" d="M432.83,239.34l-5.55-9.8h-2.37v9.8h-5V214.21h9.43a11.1,11.1,0,0,1,5,1,7.18,7.18,0,0,1,3.07,2.78,7.78,7.78,0,0,1-.41,8.38,7.4,7.4,0,0,1-4.28,2.76l6,10.19Zm-7.92-13.58h4.21a4.2,4.2,0,0,0,3.06-1,3.68,3.68,0,0,0,1-2.75,3.51,3.51,0,0,0-1-2.68,4.29,4.29,0,0,0-3.06-1h-4.21Z" transform="translate(-9.14 -10.19)"/><path class="b" d="M448,214.21v25.13h-5V214.21Z" transform="translate(-9.14 -10.19)"/><path class="b" d="M470.7,228.57a6.21,6.21,0,0,1,1.37,4,6.38,6.38,0,0,1-1,3.55,6.56,6.56,0,0,1-2.87,2.39,10.37,10.37,0,0,1-4.42.87H453V214.21h10.37a10.65,10.65,0,0,1,4.41.83,6.35,6.35,0,0,1,2.81,2.3,6.07,6.07,0,0,1,.95,3.35,5.72,5.72,0,0,1-1.17,3.67,6.32,6.32,0,0,1-3.11,2.09A5.64,5.64,0,0,1,470.7,228.57Zm-12.71-4h4.61a4.22,4.22,0,0,0,2.77-.81,2.86,2.86,0,0,0,1-2.33,2.92,2.92,0,0,0-1-2.34,4.16,4.16,0,0,0-2.77-.82H458Zm7.94,9.79a3,3,0,0,0,1-2.45,3.15,3.15,0,0,0-1.08-2.54,4.36,4.36,0,0,0-2.91-.92h-5v6.77h5.08A4.36,4.36,0,0,0,465.93,234.37Z" transform="translate(-9.14 -10.19)"/><path class="b" d="M481.07,214.21v15.55a5.34,5.34,0,0,0,1.33,3.91,5,5,0,0,0,3.74,1.35,5.08,5.08,0,0,0,3.78-1.35,5.34,5.34,0,0,0,1.33-3.91V214.21h5.08v15.51a10,10,0,0,1-1.39,5.42,8.74,8.74,0,0,1-3.7,3.33,11.73,11.73,0,0,1-5.17,1.12,11.35,11.35,0,0,1-5.09-1.12,8.43,8.43,0,0,1-3.62-3.33,10.3,10.3,0,0,1-1.33-5.42V214.21Z" transform="translate(-9.14 -10.19)"/><path class="b" d="M506.23,214.21v25.13h-5V214.21Z" transform="translate(-9.14 -10.19)"/><path class="b" d="M526.3,234.13a6.13,6.13,0,0,0,2.43-2.71h5.79a11.22,11.22,0,0,1-3.83,5.56,12.36,12.36,0,0,1-6.39,2.5V241a5.42,5.42,0,0,1,3.33,1,3.44,3.44,0,0,1,1.35,2.92,3.51,3.51,0,0,1-1.39,3,5.5,5.5,0,0,1-3.4,1h-5.11V246h4.28a2.74,2.74,0,0,0,1.32-.25,1,1,0,0,0,.45-.9.89.89,0,0,0-.45-.88,2.88,2.88,0,0,0-1.32-.24h-2.23v-4.21a12.65,12.65,0,0,1-5.74-2.07,12,12,0,0,1-4-4.48,14,14,0,0,1,.24-12.84,11.94,11.94,0,0,1,4.57-4.57,13,13,0,0,1,6.5-1.64A12.82,12.82,0,0,1,530.1,216a11.32,11.32,0,0,1,4.42,6h-5.79a6.05,6.05,0,0,0-2.43-2.7,7.15,7.15,0,0,0-3.62-.9,7.41,7.41,0,0,0-3.91,1,7,7,0,0,0-2.66,2.89,10.6,10.6,0,0,0,0,8.77,7,7,0,0,0,2.66,2.92,7.5,7.5,0,0,0,3.91,1A7,7,0,0,0,526.3,234.13Z" transform="translate(-9.14 -10.19)"/><path class="b" d="M554.25,234.55h-10l-1.65,4.79H537.3l9-25.17h5.87l9,25.17h-5.33Zm-10-25.83a4,4,0,0,1,3-1.17,3.59,3.59,0,0,1,1.33.23,9.56,9.56,0,0,1,1.3.67,3.66,3.66,0,0,0,1.8.68c.89,0,1.4-.51,1.55-1.55h2.7a6.05,6.05,0,0,1-1.5,3.55,4,4,0,0,1-3,1.17,3.67,3.67,0,0,1-1.33-.23,10.12,10.12,0,0,1-1.29-.67,3.38,3.38,0,0,0-1.8-.72c-.89,0-1.42.53-1.59,1.58h-2.66A6,6,0,0,1,544.26,208.72Zm8.62,21.8L549.25,220l-3.64,10.52Z" transform="translate(-9.14 -10.19)"/><path class="b" d="M569.8,237.93a12.42,12.42,0,0,1-4.68-4.59,13.62,13.62,0,0,1,0-13.25,12.57,12.57,0,0,1,4.68-4.59,13.59,13.59,0,0,1,13,0,12.34,12.34,0,0,1,4.65,4.59,13.69,13.69,0,0,1,0,13.25,12.18,12.18,0,0,1-4.67,4.59,13.48,13.48,0,0,1-13,0Zm10.48-3.87a7,7,0,0,0,2.7-2.93,9.6,9.6,0,0,0,1-4.43,9.49,9.49,0,0,0-1-4.41,7,7,0,0,0-2.7-2.9,7.79,7.79,0,0,0-4-1,7.88,7.88,0,0,0-4,1,6.94,6.94,0,0,0-2.72,2.9,9.49,9.49,0,0,0-1,4.41,9.6,9.6,0,0,0,1,4.43,7,7,0,0,0,2.72,2.93,7.7,7.7,0,0,0,4,1A7.61,7.61,0,0,0,580.28,234.06Z" transform="translate(-9.14 -10.19)"/><path class="b" d="M748.29,228.71a7.06,7.06,0,0,1-3,2.85,10.89,10.89,0,0,1-5.13,1.08H736v9.65h-5V217.16h9.25a11.1,11.1,0,0,1,5,1,7,7,0,0,1,3.07,2.77,7.73,7.73,0,0,1,1,4A7.85,7.85,0,0,1,748.29,228.71Zm-5.24-1.09a3.55,3.55,0,0,0,1-2.69c0-2.44-1.37-3.67-4.11-3.67h-4v7.31h4A4.41,4.41,0,0,0,743.05,227.62Z" transform="translate(-9.14 -10.19)"/><path class="b" d="M765.76,242.29l-5.54-9.8h-2.38v9.8h-5V217.16h9.44a11,11,0,0,1,5,1,7.16,7.16,0,0,1,3.08,2.78,7.78,7.78,0,0,1-.41,8.38,7.4,7.4,0,0,1-4.29,2.76l6,10.19Zm-7.92-13.58h4.22a4.23,4.23,0,0,0,3.06-1,3.67,3.67,0,0,0,1-2.75,3.51,3.51,0,0,0-1-2.68,4.32,4.32,0,0,0-3.06-1h-4.22Z" transform="translate(-9.14 -10.19)"/><path class="b" d="M781.06,240.88a12.42,12.42,0,0,1-4.68-4.59,13.62,13.62,0,0,1,0-13.25,12.57,12.57,0,0,1,4.68-4.59,13.59,13.59,0,0,1,13,0,12.34,12.34,0,0,1,4.65,4.59,13.69,13.69,0,0,1,0,13.25,12.18,12.18,0,0,1-4.67,4.59,13.48,13.48,0,0,1-13,0ZM791.54,237a7,7,0,0,0,2.7-2.93,9.6,9.6,0,0,0,1-4.43,9.49,9.49,0,0,0-1-4.41,7,7,0,0,0-2.7-2.9,7.79,7.79,0,0,0-4-1,7.88,7.88,0,0,0-4,1,6.94,6.94,0,0,0-2.72,2.9,9.49,9.49,0,0,0-1,4.41,9.6,9.6,0,0,0,1,4.43,7,7,0,0,0,2.72,2.93,7.7,7.7,0,0,0,4,1A7.61,7.61,0,0,0,791.54,237Z" transform="translate(-9.14 -10.19)"/><path class="b" d="M819.89,218.71a11,11,0,0,1,4.64,4.41,13,13,0,0,1,1.64,6.64,12.83,12.83,0,0,1-1.64,6.6,11.09,11.09,0,0,1-4.64,4.38,15,15,0,0,1-7,1.55h-8.78V217.16h8.78A14.92,14.92,0,0,1,819.89,218.71Zm-1,17.13a8.23,8.23,0,0,0,2.16-6.08,8.42,8.42,0,0,0-2.16-6.14,8.14,8.14,0,0,0-6.12-2.21h-3.56V238h3.56A8.28,8.28,0,0,0,818.86,235.84Z" transform="translate(-9.14 -10.19)"/><path class="b" d="M834.92,217.16v15.55a5.34,5.34,0,0,0,1.33,3.91,5.93,5.93,0,0,0,7.53,0,5.38,5.38,0,0,0,1.33-3.91V217.16h5.07v15.51a10,10,0,0,1-1.38,5.42,8.77,8.77,0,0,1-3.71,3.33,11.7,11.7,0,0,1-5.17,1.12,11.35,11.35,0,0,1-5.09-1.12,8.49,8.49,0,0,1-3.62-3.33,10.3,10.3,0,0,1-1.33-5.42V217.16Z" transform="translate(-9.14 -10.19)"/><path class="b" d="M870.15,237.08a6.13,6.13,0,0,0,2.43-2.71h5.79a11.22,11.22,0,0,1-3.83,5.56,12.36,12.36,0,0,1-6.39,2.5v1.48a5.42,5.42,0,0,1,3.33,1,3.42,3.42,0,0,1,1.35,2.92,3.51,3.51,0,0,1-1.39,3,5.52,5.52,0,0,1-3.4,1h-5.11v-3h4.28a2.86,2.86,0,0,0,1.32-.25,1,1,0,0,0,.45-.9.89.89,0,0,0-.45-.88,2.88,2.88,0,0,0-1.32-.24H865v-4.21a12.6,12.6,0,0,1-5.74-2.07,12,12,0,0,1-4-4.48,14.05,14.05,0,0,1,.23-12.84,12,12,0,0,1,4.58-4.57,13,13,0,0,1,6.49-1.64,12.77,12.77,0,0,1,7.38,2.16,11.28,11.28,0,0,1,4.43,6h-5.79a6.05,6.05,0,0,0-2.43-2.7,7.15,7.15,0,0,0-3.62-.9,7.39,7.39,0,0,0-3.91,1,7,7,0,0,0-2.66,2.89,10.49,10.49,0,0,0,0,8.77,7,7,0,0,0,2.66,2.92,7.48,7.48,0,0,0,3.91,1A7,7,0,0,0,870.15,237.08Z" transform="translate(-9.14 -10.19)"/><path class="b" d="M898.1,237.5h-10l-1.65,4.79h-5.3l9-25.17h5.87l9,25.17h-5.33Zm-10-25.83a4,4,0,0,1,3-1.17,3.63,3.63,0,0,1,1.33.23,10.18,10.18,0,0,1,1.3.67,3.66,3.66,0,0,0,1.8.68c.88,0,1.4-.51,1.55-1.55h2.69a6,6,0,0,1-1.49,3.55,4,4,0,0,1-3,1.17A3.63,3.63,0,0,1,894,215a9.56,9.56,0,0,1-1.3-.67,3.32,3.32,0,0,0-1.8-.72c-.89,0-1.41.53-1.58,1.58h-2.66A6,6,0,0,1,888.11,211.67Zm8.62,21.8L893.1,223l-3.64,10.52Z" transform="translate(-9.14 -10.19)"/><path class="b" d="M913.65,240.88a12.28,12.28,0,0,1-4.68-4.59A13.55,13.55,0,0,1,909,223a12.42,12.42,0,0,1,4.68-4.59,13.59,13.59,0,0,1,13,0,12.39,12.39,0,0,1,4.64,4.59,13.69,13.69,0,0,1,0,13.25,12.16,12.16,0,0,1-4.66,4.59,13.48,13.48,0,0,1-13,0ZM924.13,237a7,7,0,0,0,2.7-2.93,9.73,9.73,0,0,0,1-4.43,9.62,9.62,0,0,0-1-4.41,7,7,0,0,0-2.7-2.9,8.45,8.45,0,0,0-8,0,6.88,6.88,0,0,0-2.72,2.9,9.49,9.49,0,0,0-1,4.41,9.6,9.6,0,0,0,1,4.43,7,7,0,0,0,2.72,2.93,8.3,8.3,0,0,0,8,0Z" transform="translate(-9.14 -10.19)"/><path class="b" d="M1126.13,219.39v6.3h8.46v4h-8.46v6.66h9.54v4.11h-14.58V215.28h14.58v4.11Z" transform="translate(-9.14 -10.19)"/><path class="b" d="M1161.73,240.45h-5l-11.41-17.25v17.25h-5V215.28h5l11.41,17.28V215.28h5Z" transform="translate(-9.14 -10.19)"/><path class="b" d="M1183.8,215.32v4.07h-6.7v21.06h-5V219.39h-6.69v-4.07Z" transform="translate(-9.14 -10.19)"/><path class="b" d="M1200.43,240.45l-5.54-9.79h-2.38v9.79h-5V215.32h9.43a10.93,10.93,0,0,1,5,1,7.13,7.13,0,0,1,3.08,2.77,7.83,7.83,0,0,1-.42,8.39,7.36,7.36,0,0,1-4.28,2.75l6,10.19Zm-7.92-13.57h4.21a4.2,4.2,0,0,0,3.06-1,3.7,3.7,0,0,0,1-2.76,3.53,3.53,0,0,0-1-2.68,4.28,4.28,0,0,0-3.06-.95h-4.21Z" transform="translate(-9.14 -10.19)"/><path class="b" d="M1215.59,219.39v6.3h8.46v4h-8.46v6.66h9.54v4.11h-14.58V215.28h14.58v4.11Z" transform="translate(-9.14 -10.19)"/><path class="b" d="M1247.19,222.88a5.8,5.8,0,0,0-2.37-2.41,7.28,7.28,0,0,0-3.53-.83,7.72,7.72,0,0,0-4,1,7,7,0,0,0-2.7,2.88,10.17,10.17,0,0,0,0,8.71,7,7,0,0,0,2.75,2.88,8.18,8.18,0,0,0,4.11,1,7.1,7.1,0,0,0,4.71-1.53,7.24,7.24,0,0,0,2.41-4.27H1240v-3.85h13.61v4.39a11.8,11.8,0,0,1-2.16,4.86,12.11,12.11,0,0,1-4.26,3.58,12.54,12.54,0,0,1-5.85,1.35,13.23,13.23,0,0,1-6.57-1.63,11.88,11.88,0,0,1-4.61-4.56,13.92,13.92,0,0,1,0-13.26,11.87,11.87,0,0,1,4.61-4.58,14.05,14.05,0,0,1,13.91.44,10.53,10.53,0,0,1,4.32,5.81Z" transform="translate(-9.14 -10.19)"/><path class="b" d="M1272.75,235.66h-10l-1.66,4.79h-5.29l9-25.17h5.87l9,25.17h-5.33Zm-1.37-4-3.63-10.51-3.64,10.51Z" transform="translate(-9.14 -10.19)"/><circle class="a" cx="1190.98" cy="89.98" r="83.98"/><path class="b" d="M1225.47,116h-6.7v8.64h-16.49V116h-26.13v-10.8l21.38-31H1215l-19,28.58h6.84V95.1h16v7.7h6.7Z" transform="translate(-9.14 -10.19)"/><polygon class="e" points="233.33 72.25 245.61 93.15 300.61 80.55 233.33 72.25"/><polygon class="e" points="240.1 118.84 245.81 93.56 301 80.67 240.1 118.84"/><ellipse class="f" cx="620.86" cy="87.31" rx="14" ry="13.5"/><ellipse class="f" cx="669.14" cy="115.81" rx="14" ry="13.5"/><ellipse class="f" cx="669.14" cy="59.81" rx="14" ry="13.5"/><line class="g" x1="620.86" y1="86.81" x2="668.86" y2="59.81"/><line class="g" x1="669.36" y1="115.31" x2="620.36" y2="86.31"/><line class="h" x1="973.67" y1="89.33" x2="963.63" y2="97.24"/><line class="h" x1="969.72" y1="74.72" x2="956.63" y2="74.72"/><line class="h" x1="974.89" y1="58.59" x2="962.41" y2="50.98"/><line class="h" x1="986.46" y1="46.71" x2="979.15" y2="33.62"/><line class="h" x1="1002.29" y1="42.76" x2="1002.29" y2="27.54"/><line class="h" x1="1018.42" y1="46.71" x2="1026.03" y2="33.62"/><line class="h" x1="1029.68" y1="58.59" x2="1042.77" y2="50.98"/><line class="h" x1="1033.64" y1="74.41" x2="1048.86" y2="74.11"/><line class="h" x1="1029.68" y1="89.63" x2="1042.16" y2="97.24"/><path class="i" d="M1021.47,110.18c-2.43,4-8.93,4-9.43,4-3.88-.09-8.26-2-10.35-5.48-1.17-2-.67-2.82-1.53-5.79-1.57-5.44-4.52-6.89-6.69-10.65A20.23,20.23,0,0,1,992.86,74c3.47-6.93,11.39-10.37,18.26-10.35,9.14,0,17.83,6.18,20.09,14,1.82,6.27-.26,14.45-4,19.17-1.31,1.68-3.51,3.79-4.57,7.61C1021.86,107.37,1022.56,108.38,1021.47,110.18Z" transform="translate(-9.14 -10.19)"/><line class="j" x1="1011.42" y1="104.55" x2="994.68" y2="104.55"/><line class="j" x1="993.76" y1="108.2" x2="1012.03" y2="108.2"/><line class="j" x1="1009.9" y1="111.86" x2="995.29" y2="112.16"/><line class="j" x1="1008.98" y1="115.81" x2="996.81" y2="115.81"/><line class="j" x1="1002.9" y1="117.03" x2="1002.59" y2="113.38"/><path class="k" d="M995.23,87.6a17.79,17.79,0,0,1,2.5-14.35c5-7.13,13.33-7.17,14.06-7.16" transform="translate(-9.14 -10.19)"/><path class="l" d="M995.23,87.6a14.45,14.45,0,0,1-1.4-8A15.23,15.23,0,0,1,997,71.8a15.71,15.71,0,0,1,3-3,16.59,16.59,0,0,1,3.72-2,14.6,14.6,0,0,1,8.09-.68,27.86,27.86,0,0,0-7.09,2.82,21.49,21.49,0,0,0-2.94,2.11c-.42.42-.9.78-1.28,1.24l-.6.66c-.19.23-.36.47-.55.7A18.18,18.18,0,0,0,996.15,80,26.91,26.91,0,0,0,995.23,87.6Z" transform="translate(-9.14 -10.19)"/></svg>